# xmcd CD database file
#
# Track frame offsets:
#	150
#	17872
#	36855
#	49147
#	74400
#	91207
#	112215
#	132587
#	156472
#	181240
#	199807
#	222082
#	239377
#	259695
#	281585
#	303850
#
# Disc length: 4348 seconds
#
# Revision: 0
# Processed by: cddbd v1.5.1PL0 Copyright (c) Steve Scherf et al.
# Submitted via: CDex 1.51
#
DISCID=ef10fa10
DTITLE=チューリップ - THE BEST OF TULIP Disc2
DYEAR=2004
DGENRE=Pop
TTITLE0=ブルー・スカイ
TTITLE1=博多っ子純情
TTITLE2=WELCOME TO MY HOUSE
TTITLE3=夕日を追いかけて
TTITLE4=別れはいつもものわかりがいい
TTITLE5=約束
TTITLE6=虹とスニーカーの頃
TTITLE7=Shooting Star
TTITLE8=I am the Editor(この映画のラストシーンは、ぼくにはつくれない)
TTITLE9=さよなら道化師
TTITLE10=ふたりがつくった風景
TTITLE11=We Can Fly
TTITLE12=星空の伝言
TTITLE13=夏の夜の海
TTITLE14=たったひとりのオーディエンス
TTITLE15=愛の迷路
EXTD=YEAR: 2004
EXTT0=
EXTT1=
EXTT2=
EXTT3=
EXTT4=
EXTT5=
EXTT6=
EXTT7=
EXTT8=
EXTT9=
EXTT10=
EXTT11=
EXTT12=
EXTT13=
EXTT14=
EXTT15=
PLAYORDER=
